<mxfile host="app.diagrams.net" modified="2021-02-04T02:30:30.974Z" agent="5.0 (Windows NT 10.0; Win64; x64) AppleWebKit/537.36 (KHTML, like Gecko) Chrome/88.0.4324.104 Safari/537.36" etag="Y_pM6gAoAKOsYHF7Io0e" version="14.2.9" type="github">
  <diagram id="XFxh3t1qVFQDeyHh47NF" name="Page-1">
    <mxGraphModel dx="1038" dy="556" grid="1" gridSize="10" guides="1" tooltips="1" connect="1" arrows="1" fold="1" page="1" pageScale="1" pageWidth="827" pageHeight="1169" math="0" shadow="0">
      <root>
        <mxCell id="0" />
        <mxCell id="1" parent="0" />
        <mxCell id="sVB93SwTUFi413PbIE0g-24" value="&lt;b&gt;&lt;font style=&quot;font-size: 19px&quot;&gt;数据层&lt;/font&gt;&lt;/b&gt;" style="rounded=0;whiteSpace=wrap;html=1;align=left;fillColor=#dae8fc;strokeColor=#6c8ebf;" vertex="1" parent="1">
          <mxGeometry x="160" y="680" width="480" height="200" as="geometry" />
        </mxCell>
        <mxCell id="sVB93SwTUFi413PbIE0g-1" value="APP" style="rounded=1;whiteSpace=wrap;html=1;fillColor=#dae8fc;strokeColor=#6c8ebf;" vertex="1" parent="1">
          <mxGeometry x="200" y="120" width="80" height="40" as="geometry" />
        </mxCell>
        <mxCell id="sVB93SwTUFi413PbIE0g-2" value="APP" style="rounded=1;whiteSpace=wrap;html=1;fillColor=#dae8fc;strokeColor=#6c8ebf;" vertex="1" parent="1">
          <mxGeometry x="320" y="120" width="80" height="40" as="geometry" />
        </mxCell>
        <mxCell id="sVB93SwTUFi413PbIE0g-3" value="APP" style="rounded=1;whiteSpace=wrap;html=1;fillColor=#dae8fc;strokeColor=#6c8ebf;" vertex="1" parent="1">
          <mxGeometry x="440" y="120" width="80" height="40" as="geometry" />
        </mxCell>
        <mxCell id="sVB93SwTUFi413PbIE0g-4" value="Oracle" style="shape=datastore;whiteSpace=wrap;html=1;gradientColor=#7ea6e0;fillColor=#dae8fc;strokeColor=#6c8ebf;" vertex="1" parent="1">
          <mxGeometry x="200" y="300" width="80" height="60" as="geometry" />
        </mxCell>
        <mxCell id="sVB93SwTUFi413PbIE0g-5" value="Oracle" style="shape=datastore;whiteSpace=wrap;html=1;gradientColor=#7ea6e0;fillColor=#dae8fc;strokeColor=#6c8ebf;" vertex="1" parent="1">
          <mxGeometry x="320" y="300" width="80" height="60" as="geometry" />
        </mxCell>
        <mxCell id="sVB93SwTUFi413PbIE0g-6" value="Oracle" style="shape=datastore;whiteSpace=wrap;html=1;gradientColor=#7ea6e0;fillColor=#dae8fc;strokeColor=#6c8ebf;" vertex="1" parent="1">
          <mxGeometry x="440" y="300" width="80" height="60" as="geometry" />
        </mxCell>
        <mxCell id="sVB93SwTUFi413PbIE0g-8" value="APP" style="rounded=1;whiteSpace=wrap;html=1;fillColor=#dae8fc;strokeColor=#6c8ebf;" vertex="1" parent="1">
          <mxGeometry x="200" y="200" width="80" height="40" as="geometry" />
        </mxCell>
        <mxCell id="sVB93SwTUFi413PbIE0g-9" value="APP" style="rounded=1;whiteSpace=wrap;html=1;fillColor=#dae8fc;strokeColor=#6c8ebf;" vertex="1" parent="1">
          <mxGeometry x="320" y="200" width="80" height="40" as="geometry" />
        </mxCell>
        <mxCell id="sVB93SwTUFi413PbIE0g-10" value="APP" style="rounded=1;whiteSpace=wrap;html=1;fillColor=#dae8fc;strokeColor=#6c8ebf;" vertex="1" parent="1">
          <mxGeometry x="440" y="200" width="80" height="40" as="geometry" />
        </mxCell>
        <mxCell id="sVB93SwTUFi413PbIE0g-11" value="" style="endArrow=classic;html=1;exitX=0.5;exitY=1;exitDx=0;exitDy=0;entryX=0.5;entryY=0;entryDx=0;entryDy=0;" edge="1" parent="1" source="sVB93SwTUFi413PbIE0g-8" target="sVB93SwTUFi413PbIE0g-4">
          <mxGeometry width="50" height="50" relative="1" as="geometry">
            <mxPoint x="110" y="410" as="sourcePoint" />
            <mxPoint x="160" y="360" as="targetPoint" />
          </mxGeometry>
        </mxCell>
        <mxCell id="sVB93SwTUFi413PbIE0g-12" value="" style="endArrow=classic;html=1;exitX=0.5;exitY=1;exitDx=0;exitDy=0;entryX=0.605;entryY=-0.003;entryDx=0;entryDy=0;entryPerimeter=0;" edge="1" parent="1" source="sVB93SwTUFi413PbIE0g-8" target="sVB93SwTUFi413PbIE0g-5">
          <mxGeometry width="50" height="50" relative="1" as="geometry">
            <mxPoint x="50" y="360" as="sourcePoint" />
            <mxPoint x="100" y="310" as="targetPoint" />
          </mxGeometry>
        </mxCell>
        <mxCell id="sVB93SwTUFi413PbIE0g-13" value="" style="endArrow=classic;html=1;exitX=0.5;exitY=1;exitDx=0;exitDy=0;entryX=0.5;entryY=0;entryDx=0;entryDy=0;" edge="1" parent="1" source="sVB93SwTUFi413PbIE0g-8" target="sVB93SwTUFi413PbIE0g-6">
          <mxGeometry width="50" height="50" relative="1" as="geometry">
            <mxPoint x="60" y="340" as="sourcePoint" />
            <mxPoint x="110" y="290" as="targetPoint" />
          </mxGeometry>
        </mxCell>
        <mxCell id="sVB93SwTUFi413PbIE0g-14" value="" style="endArrow=classic;html=1;exitX=0.5;exitY=1;exitDx=0;exitDy=0;entryX=0.5;entryY=0;entryDx=0;entryDy=0;" edge="1" parent="1" source="sVB93SwTUFi413PbIE0g-9" target="sVB93SwTUFi413PbIE0g-4">
          <mxGeometry width="50" height="50" relative="1" as="geometry">
            <mxPoint x="150" y="460" as="sourcePoint" />
            <mxPoint x="200" y="410" as="targetPoint" />
          </mxGeometry>
        </mxCell>
        <mxCell id="sVB93SwTUFi413PbIE0g-15" value="" style="endArrow=classic;html=1;exitX=0.5;exitY=1;exitDx=0;exitDy=0;" edge="1" parent="1" source="sVB93SwTUFi413PbIE0g-9">
          <mxGeometry width="50" height="50" relative="1" as="geometry">
            <mxPoint x="200" y="480" as="sourcePoint" />
            <mxPoint x="360" y="300" as="targetPoint" />
          </mxGeometry>
        </mxCell>
        <mxCell id="sVB93SwTUFi413PbIE0g-16" value="" style="endArrow=classic;html=1;exitX=0.5;exitY=1;exitDx=0;exitDy=0;entryX=0.5;entryY=0;entryDx=0;entryDy=0;" edge="1" parent="1" source="sVB93SwTUFi413PbIE0g-9" target="sVB93SwTUFi413PbIE0g-6">
          <mxGeometry width="50" height="50" relative="1" as="geometry">
            <mxPoint x="320" y="510" as="sourcePoint" />
            <mxPoint x="370" y="460" as="targetPoint" />
          </mxGeometry>
        </mxCell>
        <mxCell id="sVB93SwTUFi413PbIE0g-17" value="" style="endArrow=classic;html=1;exitX=0.5;exitY=1;exitDx=0;exitDy=0;entryX=0.5;entryY=0;entryDx=0;entryDy=0;" edge="1" parent="1" source="sVB93SwTUFi413PbIE0g-10" target="sVB93SwTUFi413PbIE0g-4">
          <mxGeometry width="50" height="50" relative="1" as="geometry">
            <mxPoint x="300" y="500" as="sourcePoint" />
            <mxPoint x="350" y="450" as="targetPoint" />
          </mxGeometry>
        </mxCell>
        <mxCell id="sVB93SwTUFi413PbIE0g-18" value="" style="endArrow=classic;html=1;entryX=0.5;entryY=0;entryDx=0;entryDy=0;" edge="1" parent="1" target="sVB93SwTUFi413PbIE0g-5">
          <mxGeometry width="50" height="50" relative="1" as="geometry">
            <mxPoint x="480" y="240" as="sourcePoint" />
            <mxPoint x="380" y="460" as="targetPoint" />
          </mxGeometry>
        </mxCell>
        <mxCell id="sVB93SwTUFi413PbIE0g-19" value="" style="endArrow=classic;html=1;exitX=0.5;exitY=1;exitDx=0;exitDy=0;" edge="1" parent="1" source="sVB93SwTUFi413PbIE0g-10">
          <mxGeometry width="50" height="50" relative="1" as="geometry">
            <mxPoint x="450" y="530" as="sourcePoint" />
            <mxPoint x="480" y="300" as="targetPoint" />
          </mxGeometry>
        </mxCell>
        <mxCell id="sVB93SwTUFi413PbIE0g-20" value="传统IOE架构" style="text;html=1;strokeColor=#666666;fillColor=#f5f5f5;align=center;verticalAlign=middle;whiteSpace=wrap;rounded=0;fontColor=#333333;" vertex="1" parent="1">
          <mxGeometry x="296.5" y="385" width="127" height="20" as="geometry" />
        </mxCell>
        <mxCell id="sVB93SwTUFi413PbIE0g-21" value="&lt;b&gt;服务接入层&lt;/b&gt;" style="rounded=0;whiteSpace=wrap;html=1;align=left;fillColor=#f5f5f5;strokeColor=#666666;fontColor=#333333;" vertex="1" parent="1">
          <mxGeometry x="160" y="480" width="480" height="80" as="geometry" />
        </mxCell>
        <mxCell id="sVB93SwTUFi413PbIE0g-23" value="&lt;b&gt;&lt;font style=&quot;font-size: 14px&quot;&gt;应用层&lt;/font&gt;&lt;/b&gt;" style="rounded=0;whiteSpace=wrap;html=1;align=left;fillColor=#fff2cc;strokeColor=#d6b656;" vertex="1" parent="1">
          <mxGeometry x="160" y="560" width="480" height="120" as="geometry" />
        </mxCell>
        <mxCell id="sVB93SwTUFi413PbIE0g-25" value="服务路由" style="rounded=1;whiteSpace=wrap;html=1;fillColor=#dae8fc;strokeColor=#6c8ebf;fontStyle=1" vertex="1" parent="1">
          <mxGeometry x="240" y="505" width="80" height="30" as="geometry" />
        </mxCell>
        <mxCell id="sVB93SwTUFi413PbIE0g-26" value="访问控制" style="rounded=1;whiteSpace=wrap;html=1;fillColor=#dae8fc;strokeColor=#6c8ebf;fontStyle=1" vertex="1" parent="1">
          <mxGeometry x="343.5" y="505" width="80" height="30" as="geometry" />
        </mxCell>
        <mxCell id="sVB93SwTUFi413PbIE0g-27" value="服务限流" style="rounded=1;whiteSpace=wrap;html=1;fillColor=#dae8fc;strokeColor=#6c8ebf;fontStyle=1" vertex="1" parent="1">
          <mxGeometry x="450" y="505" width="80" height="30" as="geometry" />
        </mxCell>
        <mxCell id="sVB93SwTUFi413PbIE0g-28" value="交易幂等性" style="rounded=1;whiteSpace=wrap;html=1;fillColor=#dae8fc;strokeColor=#6c8ebf;fontStyle=1" vertex="1" parent="1">
          <mxGeometry x="550" y="505" width="80" height="30" as="geometry" />
        </mxCell>
        <mxCell id="sVB93SwTUFi413PbIE0g-29" value="分布式服务框架" style="rounded=1;whiteSpace=wrap;html=1;fillColor=#e1d5e7;strokeColor=#9673a6;" vertex="1" parent="1">
          <mxGeometry x="240" y="590" width="80" height="40" as="geometry" />
        </mxCell>
        <mxCell id="sVB93SwTUFi413PbIE0g-30" value="消息中心" style="rounded=1;whiteSpace=wrap;html=1;fillColor=#e1d5e7;strokeColor=#9673a6;" vertex="1" parent="1">
          <mxGeometry x="240" y="640" width="80" height="20" as="geometry" />
        </mxCell>
        <mxCell id="sVB93SwTUFi413PbIE0g-31" value="分布式批处理框架" style="rounded=1;whiteSpace=wrap;html=1;fillColor=#e1d5e7;strokeColor=#9673a6;" vertex="1" parent="1">
          <mxGeometry x="490" y="600" width="80" height="50" as="geometry" />
        </mxCell>
        <mxCell id="sVB93SwTUFi413PbIE0g-32" value="注册中心" style="rounded=1;whiteSpace=wrap;html=1;fillColor=#e1d5e7;strokeColor=#9673a6;" vertex="1" parent="1">
          <mxGeometry x="362" y="575" width="88" height="20" as="geometry" />
        </mxCell>
        <mxCell id="sVB93SwTUFi413PbIE0g-35" value="&lt;b&gt;批量&lt;/b&gt;" style="text;html=1;strokeColor=none;fillColor=none;align=center;verticalAlign=middle;whiteSpace=wrap;rounded=0;" vertex="1" parent="1">
          <mxGeometry x="510" y="570" width="40" height="20" as="geometry" />
        </mxCell>
        <mxCell id="sVB93SwTUFi413PbIE0g-36" value="全局序列" style="rounded=1;whiteSpace=wrap;html=1;fillColor=#e1d5e7;strokeColor=#9673a6;" vertex="1" parent="1">
          <mxGeometry x="362" y="610" width="88" height="20" as="geometry" />
        </mxCell>
        <mxCell id="sVB93SwTUFi413PbIE0g-37" value="配置中心" style="rounded=1;whiteSpace=wrap;html=1;fillColor=#e1d5e7;strokeColor=#9673a6;" vertex="1" parent="1">
          <mxGeometry x="362" y="640" width="88" height="20" as="geometry" />
        </mxCell>
        <mxCell id="sVB93SwTUFi413PbIE0g-38" value="&lt;b&gt;联机&lt;/b&gt;" style="text;html=1;strokeColor=none;fillColor=none;align=center;verticalAlign=middle;whiteSpace=wrap;rounded=0;" vertex="1" parent="1">
          <mxGeometry x="256.5" y="565" width="40" height="20" as="geometry" />
        </mxCell>
        <mxCell id="sVB93SwTUFi413PbIE0g-39" value="&lt;div style=&quot;text-align: center&quot;&gt;&lt;b&gt;&lt;span&gt;数据库（读写分离&lt;/span&gt;&lt;span&gt;）&lt;/span&gt;&lt;/b&gt;&lt;/div&gt;&lt;div style=&quot;text-align: center&quot;&gt;&lt;span&gt;&lt;b&gt;&lt;br&gt;&lt;/b&gt;&lt;/span&gt;&lt;/div&gt;&lt;div style=&quot;text-align: center&quot;&gt;&lt;span&gt;&lt;b&gt;&lt;br&gt;&lt;/b&gt;&lt;/span&gt;&lt;/div&gt;&lt;div style=&quot;text-align: center&quot;&gt;&lt;span&gt;&lt;b&gt;&lt;br&gt;&lt;/b&gt;&lt;/span&gt;&lt;/div&gt;&lt;div style=&quot;text-align: center&quot;&gt;&lt;span&gt;&lt;b&gt;&lt;br&gt;&lt;/b&gt;&lt;/span&gt;&lt;/div&gt;&lt;div style=&quot;text-align: center&quot;&gt;&lt;span&gt;&lt;b&gt;&lt;br&gt;&lt;/b&gt;&lt;/span&gt;&lt;/div&gt;&lt;div style=&quot;text-align: center&quot;&gt;&lt;span&gt;&lt;br&gt;&lt;/span&gt;&lt;/div&gt;" style="rounded=0;whiteSpace=wrap;html=1;fillColor=#b1ddf0;strokeColor=#10739e;align=left;" vertex="1" parent="1">
          <mxGeometry x="240" y="750" width="180" height="110" as="geometry" />
        </mxCell>
        <mxCell id="sVB93SwTUFi413PbIE0g-40" value="写库" style="shape=datastore;whiteSpace=wrap;html=1;gradientColor=#7ea6e0;fillColor=#dae8fc;strokeColor=#6c8ebf;" vertex="1" parent="1">
          <mxGeometry x="250" y="790" width="46.5" height="60" as="geometry" />
        </mxCell>
        <mxCell id="sVB93SwTUFi413PbIE0g-41" value="&lt;b&gt;&lt;font style=&quot;font-size: 14px&quot;&gt;分布式数据库访问/分布式事务&lt;/font&gt;&lt;/b&gt;" style="rounded=1;whiteSpace=wrap;html=1;gradientColor=#ea6b66;fillColor=#f8cecc;strokeColor=#b85450;" vertex="1" parent="1">
          <mxGeometry x="306.75" y="690" width="240" height="30" as="geometry" />
        </mxCell>
        <mxCell id="sVB93SwTUFi413PbIE0g-42" value="读库" style="shape=datastore;whiteSpace=wrap;html=1;gradientColor=#7ea6e0;fillColor=#dae8fc;strokeColor=#6c8ebf;" vertex="1" parent="1">
          <mxGeometry x="306.75" y="790" width="46.5" height="60" as="geometry" />
        </mxCell>
        <mxCell id="sVB93SwTUFi413PbIE0g-43" value="读库" style="shape=datastore;whiteSpace=wrap;html=1;gradientColor=#7ea6e0;fillColor=#dae8fc;strokeColor=#6c8ebf;" vertex="1" parent="1">
          <mxGeometry x="362" y="790" width="46.5" height="60" as="geometry" />
        </mxCell>
        <mxCell id="sVB93SwTUFi413PbIE0g-44" value="&lt;div style=&quot;text-align: center&quot;&gt;&lt;b&gt;&lt;span&gt;数据库（分库分表&lt;/span&gt;&lt;span&gt;）&lt;/span&gt;&lt;/b&gt;&lt;/div&gt;&lt;div style=&quot;text-align: center&quot;&gt;&lt;span&gt;&lt;b&gt;&lt;br&gt;&lt;/b&gt;&lt;/span&gt;&lt;/div&gt;&lt;div style=&quot;text-align: center&quot;&gt;&lt;span&gt;&lt;b&gt;&lt;br&gt;&lt;/b&gt;&lt;/span&gt;&lt;/div&gt;&lt;div style=&quot;text-align: center&quot;&gt;&lt;span&gt;&lt;b&gt;&lt;br&gt;&lt;/b&gt;&lt;/span&gt;&lt;/div&gt;&lt;div style=&quot;text-align: center&quot;&gt;&lt;span&gt;&lt;b&gt;&lt;br&gt;&lt;/b&gt;&lt;/span&gt;&lt;/div&gt;&lt;div style=&quot;text-align: center&quot;&gt;&lt;span&gt;&lt;b&gt;&lt;br&gt;&lt;/b&gt;&lt;/span&gt;&lt;/div&gt;&lt;div style=&quot;text-align: center&quot;&gt;&lt;span&gt;&lt;br&gt;&lt;/span&gt;&lt;/div&gt;" style="rounded=0;whiteSpace=wrap;html=1;fillColor=#b1ddf0;strokeColor=#10739e;align=left;" vertex="1" parent="1">
          <mxGeometry x="450" y="750" width="180" height="110" as="geometry" />
        </mxCell>
        <mxCell id="sVB93SwTUFi413PbIE0g-45" value="分片1" style="shape=datastore;whiteSpace=wrap;html=1;gradientColor=#7ea6e0;fillColor=#dae8fc;strokeColor=#6c8ebf;" vertex="1" parent="1">
          <mxGeometry x="460" y="790" width="46.5" height="60" as="geometry" />
        </mxCell>
        <mxCell id="sVB93SwTUFi413PbIE0g-46" value="分片2" style="shape=datastore;whiteSpace=wrap;html=1;gradientColor=#7ea6e0;fillColor=#dae8fc;strokeColor=#6c8ebf;" vertex="1" parent="1">
          <mxGeometry x="516.75" y="790" width="46.5" height="60" as="geometry" />
        </mxCell>
        <mxCell id="sVB93SwTUFi413PbIE0g-47" value="分片3" style="shape=datastore;whiteSpace=wrap;html=1;gradientColor=#7ea6e0;fillColor=#dae8fc;strokeColor=#6c8ebf;" vertex="1" parent="1">
          <mxGeometry x="572" y="790" width="46.5" height="60" as="geometry" />
        </mxCell>
      </root>
    </mxGraphModel>
  </diagram>
</mxfile>
